{"asset":{"version":"2.0","generator":"Blockbench 4.9.4 glTF exporter"},"scenes":[{"nodes":[6],"name":"blockbench_export"}],"scene":0,"nodes":[{"rotation":[0,-1,0,6.123233995736766e-17],"translation":[0.003052813567932189,1.660920698924731,0.0004629629629629183],"name":"cube","mesh":0},{"rotation":[0,-1,0,6.123233995736766e-17],"translation":[-0.031250000000000014,2.2375000000000003,-0.12968749999999996],"name":"cube","mesh":1},{"rotation":[0,-1,0,6.123233995736766e-17],"translation":[0,0,0.125],"name":"cube","mesh":2},{"translation":[-0.9772745535714286,1.1484298029556648,-2.941339187237763e-19],"name":"right_door","children":[2]},{"translation":[2.0150982142857146,2.220446049250313e-16,0.125],"name":"cube","mesh":3},{"translation":[-0.9772745535714286,1.1484298029556648,-2.941339187237763e-19],"name":"left_door","children":[4]},{"children":[0,1,3,5]}],"bufferViews":[{"buffer":0,"byteOffset":0,"byteLength":2496,"target":34962,"byteStride":12},{"buffer":0,"byteOffset":2496,"byteLength":2496,"target":34962,"byteStride":12},{"buffer":0,"byteOffset":4992,"byteLength":1664,"target":34962,"byteStride":8},{"buffer":0,"byteOffset":6656,"byteLength":624,"target":34963},{"buffer":0,"byteOffset":7280,"byteLength":1056,"target":34962,"byteStride":12},{"buffer":0,"byteOffset":8336,"byteLength":1056,"target":34962,"byteStride":12},{"buffer":0,"byteOffset":9392,"byteLength":704,"target":34962,"byteStride":8},{"buffer":0,"byteOffset":10096,"byteLength":264,"target":34963},{"buffer":0,"byteOffset":10360,"byteLength":1272,"target":34962,"byteStride":12},{"buffer":0,"byteOffset":11632,"byteLength":1272,"target":34962,"byteStride":12},{"buffer":0,"byteOffset":12904,"byteLength":848,"target":34962,"byteStride":8},{"buffer":0,"byteOffset":13752,"byteLength":312,"target":34963},{"buffer":0,"byteOffset":14064,"byteLength":1272,"target":34962,"byteStride":12},{"buffer":0,"byteOffset":15336,"byteLength":1272,"target":34962,"byteStride":12},{"buffer":0,"byteOffset":16608,"byteLength":848,"target":34962,"byteStride":8},{"buffer":0,"byteOffset":17456,"byteLength":312,"target":34963},{"buffer":0,"byteOffset":17768,"byteLength":20},{"buffer":0,"byteOffset":17788,"byteLength":60},{"buffer":0,"byteOffset":17848,"byteLength":8},{"buffer":0,"byteOffset":17856,"byteLength":32},{"buffer":0,"byteOffset":17888,"byteLength":16},{"buffer":0,"byteOffset":17904,"byteLength":48}],"buffers":[{"byteLength":17952,"uri":"data:application/octet-stream;base64,"}],"accessors":[{"bufferView":0,"componentType":5126,"count":208,"max":[2.0030527114868164,0.7140793204307556,0.09421296417713165],"min":[-1.969447135925293,-1.6859207153320312,-0.09328703582286835],"type":"VEC3"},{"bufferView":1,"componentType":5126,"count":208,"max":[0.9999672174453735,1,0.9878198504447937],"min":[-1,-1,-1],"type":"VEC3"},{"bufferView":2,"componentType":5126,"count":208,"max":[0.9591659903526306,0.9509804844856262],"min":[0,0.003285646438598633],"type":"VEC2"},{"bufferView":3,"componentType":5123,"count":312,"max":[207],"min":[0],"type":"SCALAR"},{"bufferView":4,"componentType":5126,"count":88,"max":[1.0625,0.125,0.05781250074505806],"min":[-1.0625,-0.125,-0.09843750298023224],"type":"VEC3"},{"bufferView":5,"componentType":5126,"count":88,"max":[1,1,1],"min":[-1,-1,-1],"type":"VEC3"},{"bufferView":6,"componentType":5126,"count":88,"max":[0.9609375,0.71875],"min":[0,0],"type":"VEC2"},{"bufferView":7,"componentType":5123,"count":132,"max":[87],"min":[0],"type":"SCALAR"},{"bufferView":8,"componentType":5126,"count":106,"max":[0.6935155987739563,0.9578201770782471,0.0625],"min":[-1.2399219274520874,-1.167179822921753,-0.0625],"type":"VEC3"},{"bufferView":9,"componentType":5126,"count":106,"max":[1,1,1],"min":[-1,-1,-1],"type":"VEC3"},{"bufferView":10,"componentType":5126,"count":106,"max":[0.7653710842132568,0.625],"min":[0.06302734464406967,0.046875],"type":"VEC2"},{"bufferView":11,"componentType":5123,"count":156,"max":[105],"min":[0],"type":"SCALAR"},{"bufferView":12,"componentType":5126,"count":106,"max":[0.6574888229370117,0.9578201770782471,0.0625],"min":[-1.2759486436843872,-1.167179822921753,-0.0625],"type":"VEC3"},{"bufferView":13,"componentType":5126,"count":106,"max":[1,1,1],"min":[-1,-1,-1],"type":"VEC3"},{"bufferView":14,"componentType":5126,"count":106,"max":[0.7809960842132568,0.8515625],"min":[0.06275390833616257,0],"type":"VEC2"},{"bufferView":15,"componentType":5123,"count":156,"max":[105],"min":[0],"type":"SCALAR"},{"bufferView":16,"componentType":5126,"count":5,"max":[1],"min":[0],"type":"SCALAR"},{"bufferView":17,"componentType":5126,"count":5,"max":[0.5227254629135132,1.1484297513961792,-2.9413392284346333e-19],"min":[-1.0085245370864868,1.1484297513961792,-2.9413392284346333e-19],"type":"VEC3"},{"bufferView":18,"componentType":5126,"count":2,"max":[0.125],"min":[0],"type":"SCALAR"},{"bufferView":19,"componentType":5126,"count":2,"max":[0,0,0,1],"min":[0,0,-0.04361938685178757,0.9990482330322266],"type":"VEC4"},{"bufferView":20,"componentType":5126,"count":4,"max":[1],"min":[0],"type":"SCALAR"},{"bufferView":21,"componentType":5126,"count":4,"max":[-0.9772745370864868,1.1484297513961792,-2.9413392284346333e-19],"min":[-1.6022745370864868,1.1484297513961792,-2.9413392284346333e-19],"type":"VEC3"}],"materials":[{"pbrMetallicRoughness":{"metallicFactor":0,"roughnessFactor":1,"baseColorTexture":{"index":0}},"alphaMode":"MASK","alphaCutoff":0.05,"doubleSided":true}],"textures":[{"sampler":0,"source":0}],"samplers":[{"magFilter":9728,"minFilter":9728,"wrapS":33071,"wrapT":33071}],"images":[{"mimeType":"image/png","uri":"data:image/png;base64,"}],"meshes":[{"primitives":[{"mode":4,"attributes":{"POSITION":0,"NORMAL":1,"TEXCOORD_0":2},"indices":3,"material":0}]},{"primitives":[{"mode":4,"attributes":{"POSITION":4,"NORMAL":5,"TEXCOORD_0":6},"indices":7,"material":0}]},{"primitives":[{"mode":4,"attributes":{"POSITION":8,"NORMAL":9,"TEXCOORD_0":10},"indices":11,"material":0}]},{"primitives":[{"mode":4,"attributes":{"POSITION":12,"NORMAL":13,"TEXCOORD_0":14},"indices":15,"material":0}]}],"animations":[{"name":"open_cargo_door_animation","samplers":[{"input":16,"output":17,"interpolation":"LINEAR"},{"input":18,"output":19,"interpolation":"LINEAR"},{"input":20,"output":21,"interpolation":"LINEAR"}],"channels":[{"sampler":0,"target":{"node":5,"path":"translation"}},{"sampler":1,"target":{"node":3,"path":"rotation"}},{"sampler":2,"target":{"node":3,"path":"translation"}}]}]}