{"asset":{"version":"2.0","generator":"Blockbench 4.9.4 glTF exporter"},"scenes":[{"nodes":[8],"name":"blockbench_export"}],"scene":0,"nodes":[{"translation":[0.015625,0.9955139939332829,-0.05489864864864891],"name":"cube","mesh":0},{"translation":[-1.1102230246251565e-16,0.23046820519764294,-0.09374999999999996],"name":"cylinder","mesh":1},{"rotation":[0,0,-1,6.123233995736766e-17],"translation":[1.1102230246251565e-16,-0.2304682051976426,-0.09374999999999996],"name":"sphere","mesh":2},{"translation":[0.5312500000000001,0.4591151281356905,-0.0016279713625527233],"name":"cell1","children":[1,2]},{"rotation":[0,0,-1,6.123233995736766e-17],"translation":[5.551115123125783e-17,-0.7662790730174737,-0.09429265712085087],"name":"sphere","mesh":3},{"translation":[-1.1102230246251565e-16,-0.001175995955521536,-0.09266468575829816],"name":"cylinder","mesh":4},{"translation":[-1.1102230246251565e-16,0.7674550689729959,-0.09429265712085087],"name":"sphere","mesh":5},{"translation":[-0.4999999999999999,0.9949259959555216,-0.0010853142417018118],"name":"cell2","children":[4,5,6]},{"children":[0,3,7]}],"bufferViews":[{"buffer":0,"byteOffset":0,"byteLength":7008,"target":34962,"byteStride":12},{"buffer":0,"byteOffset":7008,"byteLength":7008,"target":34962,"byteStride":12},{"buffer":0,"byteOffset":14016,"byteLength":4672,"target":34962,"byteStride":8},{"buffer":0,"byteOffset":18688,"byteLength":1752,"target":34963},{"buffer":0,"byteOffset":20440,"byteLength":1512,"target":34962,"byteStride":12},{"buffer":0,"byteOffset":21952,"byteLength":1512,"target":34962,"byteStride":12},{"buffer":0,"byteOffset":23464,"byteLength":1008,"target":34962,"byteStride":8},{"buffer":0,"byteOffset":24472,"byteLength":336,"target":34963},{"buffer":0,"byteOffset":24808,"byteLength":600,"target":34962,"byteStride":12},{"buffer":0,"byteOffset":25408,"byteLength":600,"target":34962,"byteStride":12},{"buffer":0,"byteOffset":26008,"byteLength":400,"target":34962,"byteStride":8},{"buffer":0,"byteOffset":26408,"byteLength":144,"target":34963},{"buffer":0,"byteOffset":26552,"byteLength":600,"target":34962,"byteStride":12},{"buffer":0,"byteOffset":27152,"byteLength":600,"target":34962,"byteStride":12},{"buffer":0,"byteOffset":27752,"byteLength":400,"target":34962,"byteStride":8},{"buffer":0,"byteOffset":28152,"byteLength":144,"target":34963},{"buffer":0,"byteOffset":28296,"byteLength":840,"target":34962,"byteStride":12},{"buffer":0,"byteOffset":29136,"byteLength":840,"target":34962,"byteStride":12},{"buffer":0,"byteOffset":29976,"byteLength":560,"target":34962,"byteStride":8},{"buffer":0,"byteOffset":30536,"byteLength":168,"target":34963},{"buffer":0,"byteOffset":30704,"byteLength":600,"target":34962,"byteStride":12},{"buffer":0,"byteOffset":31304,"byteLength":600,"target":34962,"byteStride":12},{"buffer":0,"byteOffset":31904,"byteLength":400,"target":34962,"byteStride":8},{"buffer":0,"byteOffset":32304,"byteLength":144,"target":34963},{"buffer":0,"byteOffset":32448,"byteLength":12},{"buffer":0,"byteOffset":32460,"byteLength":36}],"buffers":[{"byteLength":32496,"uri":"data:application/octet-stream;base64,"}],"accessors":[{"bufferView":0,"componentType":5126,"count":584,"max":[1.015625,0.984375,0.4611486494541168],"min":[-1.015625,-0.984375,-0.4451013505458832],"type":"VEC3"},{"bufferView":1,"componentType":5126,"count":584,"max":[1,1,1],"min":[-1,-1,-1],"type":"VEC3"},{"bufferView":2,"componentType":5126,"count":584,"max":[0.86376953125,0.81640625],"min":[0.001953125,0],"type":"VEC2"},{"bufferView":3,"componentType":5123,"count":876,"max":[583],"min":[0],"type":"SCALAR"},{"bufferView":4,"componentType":5126,"count":126,"max":[0.4395983815193176,0.49166667461395264,0.40787798166275024],"min":[-0.4395983815193176,-0.35208332538604736,-0.44927552342414856],"type":"VEC3"},{"bufferView":5,"componentType":5126,"count":126,"max":[0.9749279022216797,1,1],"min":[-0.9749279022216797,-1,-1],"type":"VEC3"},{"bufferView":6,"componentType":5126,"count":126,"max":[0.7734375,0.8046875],"min":[0.0036437499802559614,0],"type":"VEC2"},{"bufferView":7,"componentType":5123,"count":168,"max":[125],"min":[0],"type":"SCALAR"},{"bufferView":8,"componentType":5126,"count":50,"max":[0.4395983815193176,0.11238106340169907,0.40787798166275024],"min":[-0.4395983815193176,-0.11238106340169907,-0.44927552342414856],"type":"VEC3"},{"bufferView":9,"componentType":5126,"count":50,"max":[0.7676949501037598,0.6282307505607605,0.7780270576477051],"min":[-0.7671804428100586,-1,-0.7112980484962463],"type":"VEC3"},{"bufferView":10,"componentType":5126,"count":50,"max":[0.8145343661308289,0.828125],"min":[0.002889062510803342,0.002363264560699463],"type":"VEC2"},{"bufferView":11,"componentType":5123,"count":72,"max":[49],"min":[0],"type":"SCALAR"},{"bufferView":12,"componentType":5126,"count":50,"max":[0.4395983815193176,0.11238106340169907,0.40787798166275024],"min":[-0.4395983815193176,-0.11238106340169907,-0.44927552342414856],"type":"VEC3"},{"bufferView":13,"componentType":5126,"count":50,"max":[0.7676949501037598,0.6282307505607605,0.7780270576477051],"min":[-0.7671804428100586,-1,-0.7112980484962463],"type":"VEC3"},{"bufferView":14,"componentType":5126,"count":50,"max":[0.8223468661308289,0.828125],"min":[0.16984061896800995,0],"type":"VEC2"},{"bufferView":15,"componentType":5123,"count":72,"max":[49],"min":[0],"type":"SCALAR"},{"bufferView":16,"componentType":5126,"count":70,"max":[0.4395983815193176,0.65625,0.40625],"min":[-0.4395983815193176,-0.65625,-0.4509034752845764],"type":"VEC3"},{"bufferView":17,"componentType":5126,"count":70,"max":[0.9749279022216797,1,1],"min":[-0.9749279022216797,-1,-0.9009688496589661],"type":"VEC3"},{"bufferView":18,"componentType":5126,"count":70,"max":[0.6796875,0.78125],"min":[0,0],"type":"VEC2"},{"bufferView":19,"componentType":5123,"count":84,"max":[69],"min":[0],"type":"SCALAR"},{"bufferView":20,"componentType":5126,"count":50,"max":[0.4395983815193176,0.11238106340169907,0.40787798166275024],"min":[-0.4395983815193176,-0.11238106340169907,-0.44927552342414856],"type":"VEC3"},{"bufferView":21,"componentType":5126,"count":50,"max":[0.7676949501037598,0.6282307505607605,0.7780270576477051],"min":[-0.7671804428100586,-1,-0.7112980484962463],"type":"VEC3"},{"bufferView":22,"componentType":5126,"count":50,"max":[0.8301593661308289,0.828125],"min":[0.4958312511444092,0.17410624027252197],"type":"VEC2"},{"bufferView":23,"componentType":5123,"count":72,"max":[49],"min":[0],"type":"SCALAR"},{"bufferView":24,"componentType":5126,"count":3,"max":[0.25],"min":[0],"type":"SCALAR"},{"bufferView":25,"componentType":5126,"count":3,"max":[-0.5,1.0574259757995605,11.87391471862793],"min":[-0.5,0.9949259757995605,-0.4073353111743927],"type":"VEC3"}],"materials":[{"pbrMetallicRoughness":{"metallicFactor":0,"roughnessFactor":1,"baseColorTexture":{"index":0}},"alphaMode":"MASK","alphaCutoff":0.05,"doubleSided":true}],"textures":[{"sampler":0,"source":0}],"samplers":[{"magFilter":9728,"minFilter":9728,"wrapS":33071,"wrapT":33071}],"images":[{"mimeType":"image/png","uri":"data:image/png;base64,"}],"meshes":[{"primitives":[{"mode":4,"attributes":{"POSITION":0,"NORMAL":1,"TEXCOORD_0":2},"indices":3,"material":0}]},{"primitives":[{"mode":4,"attributes":{"POSITION":4,"NORMAL":5,"TEXCOORD_0":6},"indices":7,"material":0}]},{"primitives":[{"mode":4,"attributes":{"POSITION":8,"NORMAL":9,"TEXCOORD_0":10},"indices":11,"material":0}]},{"primitives":[{"mode":4,"attributes":{"POSITION":12,"NORMAL":13,"TEXCOORD_0":14},"indices":15,"material":0}]},{"primitives":[{"mode":4,"attributes":{"POSITION":16,"NORMAL":17,"TEXCOORD_0":18},"indices":19,"material":0}]},{"primitives":[{"mode":4,"attributes":{"POSITION":20,"NORMAL":21,"TEXCOORD_0":22},"indices":23,"material":0}]}],"animations":[{"name":"animation_put_cell","samplers":[{"input":24,"output":25,"interpolation":"LINEAR"}],"channels":[{"sampler":0,"target":{"node":7,"path":"translation"}}]}]}