# Made in Blockbench 4.9.4
mtllib Monitor.mtl

o cube
v 0.625 0.4375 0.15625
v 0.625 0.4375 -0.15625
v 0.625 0.21875 0.15625
v 0.625 0.21875 -0.15625
v -0.5625 0.4375 -0.15625
v -0.5625 0.4375 0.15625
v -0.5625 0.21875 -0.15625
v -0.5625 0.21875 0.15625
vt 0 0.65625
vt 0.1484375 0.65625
vt 0.1484375 0.625
vt 0 0.625
vt 0.4140625 1
vt 0.453125 1
vt 0.453125 0.96875
vt 0.4140625 0.96875
vt 0.15625 0.6484375
vt 0.3046875 0.6484375
vt 0.3046875 0.6171875
vt 0.15625 0.6171875
vt 0.4140625 0.9609375
vt 0.453125 0.9609375
vt 0.453125 0.9296875
vt 0.4140625 0.9296875
vt 0.171875 0.7578125
vt 0.0234375 0.7578125
vt 0.0234375 0.796875
vt 0.171875 0.796875
vt 0.171875 0.75
vt 0.0234375 0.75
vt 0.0234375 0.7109375
vt 0.171875 0.7109375
vn 0 0 -1
vn 1 0 0
vn 0 0 1
vn -1 0 0
vn 0 1 0
vn 0 -1 0
usemtl m_d1a0c30f-e8d8-a55d-4d00-aa4f87185b31
f 4/4/1 7/3/1 5/2/1 2/1/1
f 3/8/2 4/7/2 2/6/2 1/5/2
f 8/12/3 3/11/3 1/10/3 6/9/3
f 7/16/4 8/15/4 6/14/4 5/13/4
f 6/20/5 1/19/5 2/18/5 5/17/5
f 7/24/6 4/23/6 3/22/6 8/21/6
o cube
v 0.84375 0.21875 0.21875
v 0.84375 0.21875 -0.21875
v 0.84375 0 0.21875
v 0.84375 0 -0.21875
v -0.78125 0.21875 -0.21875
v -0.78125 0.21875 0.21875
v -0.78125 0 -0.21875
v -0.78125 0 0.21875
vt 0.21875 0.7265625
vt 0.421875 0.7265625
vt 0.421875 0.6953125
vt 0.21875 0.6953125
vt 0.046875 0.6171875
vt 0.1015625 0.6171875
vt 0.1015625 0.5859375
vt 0.046875 0.5859375
vt 0.21875 0.6875
vt 0.421875 0.6875
vt 0.421875 0.65625
vt 0.21875 0.65625
vt 0.109375 0.609375
vt 0.1640625 0.609375
vt 0.1640625 0.578125
vt 0.109375 0.578125
vt 0.421875 0.796875
vt 0.21875 0.796875
vt 0.21875 0.8515625
vt 0.421875 0.8515625
vt 0.421875 0.7890625
vt 0.21875 0.7890625
vt 0.21875 0.734375
vt 0.421875 0.734375
vn 0 0 -1
vn 1 0 0
vn 0 0 1
vn -1 0 0
vn 0 1 0
vn 0 -1 0
usemtl m_d1a0c30f-e8d8-a55d-4d00-aa4f87185b31
f 12/28/7 15/27/7 13/26/7 10/25/7
f 11/32/8 12/31/8 10/30/8 9/29/8
f 16/36/9 11/35/9 9/34/9 14/33/9
f 15/40/10 16/39/10 14/38/10 13/37/10
f 14/44/11 9/43/11 10/42/11 13/41/11
f 15/48/12 12/47/12 11/46/12 16/45/12
o cube
v -0.5625 0.4375 0.15625
v -0.5625 0.4375 -0.15625
v -0.5625 0.21875 0.15625
v -0.5625 0.21875 -0.15625
v -0.78125 0.4375 -0.15625
v -0.78125 0.4375 0.15625
v -0.78125 0.21875 -0.15625
v -0.78125 0.21875 0.15625
vt 0.109375 0.5703125
vt 0.140625 0.5703125
vt 0.140625 0.5390625
vt 0.109375 0.5390625
vt 0.4140625 0.921875
vt 0.453125 0.921875
vt 0.453125 0.890625
vt 0.4140625 0.890625
vt 0.4296875 0.8828125
vt 0.4609375 0.8828125
vt 0.4609375 0.8515625
vt 0.4296875 0.8515625
vt 0.046875 0.578125
vt 0.0859375 0.578125
vt 0.0859375 0.546875
vt 0.046875 0.546875
vt 0.203125 0.5390625
vt 0.171875 0.5390625
vt 0.171875 0.578125
vt 0.203125 0.578125
vt 0.2421875 0.578125
vt 0.2109375 0.578125
vt 0.2109375 0.5390625
vt 0.2421875 0.5390625
vn 0 0 -1
vn 1 0 0
vn 0 0 1
vn -1 0 0
vn 0 1 0
vn 0 -1 0
usemtl m_d1a0c30f-e8d8-a55d-4d00-aa4f87185b31
f 20/52/13 23/51/13 21/50/13 18/49/13
f 19/56/14 20/55/14 18/54/14 17/53/14
f 24/60/15 19/59/15 17/58/15 22/57/15
f 23/64/16 24/63/16 22/62/16 21/61/16
f 22/68/17 17/67/17 18/66/17 21/65/17
f 23/72/18 20/71/18 19/70/18 24/69/18
o cube
v 0.84375 0.4375 0.15625
v 0.84375 0.4375 -0.15625
v 0.84375 0.21875 0.15625
v 0.84375 0.21875 -0.15625
v 0.625 0.4375 -0.15625
v 0.625 0.4375 0.15625
v 0.625 0.21875 -0.15625
v 0.625 0.21875 0.15625
vt 0.4296875 0.84375
vt 0.4609375 0.84375
vt 0.4609375 0.8125
vt 0.4296875 0.8125
vt 0.25 0.578125
vt 0.2890625 0.578125
vt 0.2890625 0.546875
vt 0.25 0.546875
vt 0.4296875 0.8046875
vt 0.4609375 0.8046875
vt 0.4609375 0.7734375
vt 0.4296875 0.7734375
vt 0.296875 0.578125
vt 0.3359375 0.578125
vt 0.3359375 0.546875
vt 0.296875 0.546875
vt 0.375 0.5390625
vt 0.34375 0.5390625
vt 0.34375 0.578125
vt 0.375 0.578125
vt 0.4140625 0.578125
vt 0.3828125 0.578125
vt 0.3828125 0.5390625
vt 0.4140625 0.5390625
vn 0 0 -1
vn 1 0 0
vn 0 0 1
vn -1 0 0
vn 0 1 0
vn 0 -1 0
usemtl m_d1a0c30f-e8d8-a55d-4d00-aa4f87185b31
f 28/76/19 31/75/19 29/74/19 26/73/19
f 27/80/20 28/79/20 26/78/20 25/77/20
f 32/84/21 27/83/21 25/82/21 30/81/21
f 31/88/22 32/87/22 30/86/22 29/85/22
f 30/92/23 25/91/23 26/90/23 29/89/23
f 31/96/24 28/95/24 27/94/24 32/93/24
o cube
v 0.8937499999999999 1.75 0.0625
v 0.8937499999999999 1.75 -0.0625
v 0.84375 0.4375 0.0625
v 0.84375 0.4375 -0.0625
v -0.78125 1.6875 0.0625
v -0.78125 1.6875 -0.0625
v -0.78125 0.4375 0.0625
v -0.78125 0.4375 -0.0625
v -0.71875 1.625 -0.0625
v 0.78125 1.625 -0.0625
v -0.71875 0.5 -0.0625
v 0.78125 0.5 -0.0625
v -0.71875 1.625 0
v 0.78125 1.625 0
v -0.71875 0.5 0
v 0.78125 0.5 0
v 0.03125 1.625 -0.0625
v 0.03125 1.75 -0.0625
v 0.03125 1.75 0.0625
v 0.03125 0.4375 0.0625
v 0.03125 0.4375 -0.0625
v 0.03125 0.5 -0.0625
v 0.03125 0.5 0
v 0.03125 1.625 0
v -0.0625 1.703125 -0.0625
v -0.0625 1.625 -0.0625
v -0.0625 1.625 0
v -0.0625 0.5 0
v -0.0625 0.5 -0.0625
v -0.0625 0.4375 -0.0625
v -0.0625 0.4375 0.0625
v -0.0625 1.703125 0.0625
v 0.78125 1.0625 -0.0625
v 0.8937499999999999 1.09375 -0.0625
v 0.8937499999999999 1.09375 0.0625
v 0.03125 1.09375 0.0625
v -0.078125 1.0703125 0.0625
v -0.78125 1.0625 0.0625
v -0.78125 1.0625 -0.0625
v -0.71875 1.0625 -0.0625
v -0.71875 1.0625 0
v -0.0625 1.0625 0
v 0.03125 1.0625 0
v 0.78125 1.0625 0
v 0.78125 0.9812500000000001 -0.0625
v 0.859375 0.984375 -0.0625
v 0.859375 0.984375 0.0625
v 0.03125 0.953125 0.0625
v -0.0859375 0.94140625 0.0625
v -0.78125 0.96875 0.0625
v -0.78125 0.96875 -0.0625
v -0.71875 0.96875 -0.0625
v -0.71875 0.96875 0
v -0.0625 0.96875 0
v 0.03125 0.96875 0
v 0.78125 0.9812500000000001 0
vt 0 0.6171875
vt 0 0.53515625
vt 0.015625 0.53515625
vt 0.015625 0.6171875
vt 0.0234375 0.6171875
vt 0.0234375 0.5390625
vt 0.0390625 0.5390625
vt 0.0390625 0.6171875
vt 0.41554609375 0.6484375
vt 0.40244375 0.6484375
vt 0.40244375 0.6328125
vt 0.41554609375 0.6328125
vt 0.4140625 0.6171875
vt 0.40234375 0.6171875
vt 0.40234375 0.6015625
vt 0.4140625 0.6015625
vt 0.090625 0.994140625
vt 0.088671875 0.9150390625
vt 0.10234375 0.91796875
vt 0.10234375 1
vt 0.3125 1
vt 0.3125 0.9296875
vt 0.32421875 0.9296875
vt 0.32421875 1
vt 0.20234375 0.8125
vt 0.20234375 0.7421875
vt 0.21015625 0.7421875
vt 0.21015625 0.8203125
vt 0.10859375 0.8125
vt 0.1203125 0.8125
vt 0.1203125 0.822265625
vt 0.10859375 0.828125
vt 0.0007812499999999972 0.828125
vt 0.0007812499999999972 0.74609375
vt 0.014843750000000003 0.7421875
vt 0.014843750000000003 0.8125
vt 0.10859375 0.6640625
vt 0.1203125 0.6640625
vt 0.1203125 0.671875
vt 0.10859375 0.671875
vt 0.09375 0.578125
vt 0.09375 0.5078125
vt 0.1015625 0.5078125
vt 0.1015625 0.578125
vt 0.265625 0.59375
vt 0.25390625 0.59375
vt 0.25390625 0.5859375
vt 0.265625 0.5859375
vt 0.421875 0.578125
vt 0.421875 0.5078125
vt 0.4296875 0.5078125
vt 0.4296875 0.578125
vt 0.4609375 0.59375
vt 0.44921875 0.59375
vt 0.44921875 0.5859375
vt 0.4609375 0.5859375
vt 0.014843750000000003 0.8125
vt 0.10859375 0.8125
vt 0.10859375 0.828125
vt 0.0007812499999999972 0.828125
vt 0.10234375 1
vt 0.10234375 0.91796875
vt 0.21015625 0.91796875
vt 0.21015625 1
vt 0.515625 0.6171875
vt 0.4140625 0.6171875
vt 0.4140625 0.6015625
vt 0.515625 0.6015625
vt 0.007031250000000003 0.6640625
vt 0.10859375 0.6640625
vt 0.10859375 0.671875
vt 0.014843750000000003 0.671875
vt 0.5546875 0.59375
vt 0.4609375 0.59375
vt 0.4609375 0.5859375
vt 0.5546875 0.5859375
vt 0.21875 1
vt 0.21875 0.9296875
vt 0.3125 0.9296875
vt 0.3125 1
vt 0.359375 0.59375
vt 0.265625 0.59375
vt 0.265625 0.5859375
vt 0.359375 0.5859375
vt 0.41554609375 0.6328125
vt 0.52335859375 0.6328125
vt 0.52335859375 0.6484375
vt 0.41554609375 0.6484375
vt 0.21015625 0.8203125
vt 0.1203125 0.822265625
vt 0.1203125 0.8125
vt 0.20234375 0.8125
vt 0.171875 0.5859375
vt 0.25390625 0.5859375
vt 0.25390625 0.59375
vt 0.171875 0.59375
vt 0.32421875 1
vt 0.32421875 0.9296875
vt 0.40625 0.9296875
vt 0.40625 1
vt 0.3671875 0.5859375
vt 0.44921875 0.5859375
vt 0.44921875 0.59375
vt 0.3671875 0.59375
vt 0.20234375 0.671875
vt 0.1203125 0.671875
vt 0.1203125 0.6640625
vt 0.21015625 0.6640625
vt 0.3125 0.6015625
vt 0.40234375 0.6015625
vt 0.40234375 0.6171875
vt 0.3125 0.6171875
vt 0.0007812499999999972 0.9921875
vt 0.0007812499999999972 0.9140625
vt 0.088671875 0.9150390625
vt 0.090625 0.994140625
vt 0.31257890625 0.6328125
vt 0.40244375 0.6328125
vt 0.40244375 0.6484375
vt 0.31257890625 0.6484375
vt 0.0007812499999999972 0.74609375
vt 0.005078125000000003 0.732421875
vt 0.014843750000000003 0.73203125
vt 0.014843750000000003 0.7421875
vt 0 0.53515625
vt 0 0.520825
vt 0.015625 0.520825
vt 0.015625 0.53515625
vt 0.10234375 0.91796875
vt 0.10234375 0.900390625
vt 0.205859375 0.904296875
vt 0.21015625 0.91796875
vt 0.088671875 0.9150390625
vt 0.0876953125 0.89892578125
vt 0.10234375 0.900390625
vt 0.10234375 0.91796875
vt 0.0007812499999999972 0.9140625
vt 0.0007812499999999972 0.90234375
vt 0.0876953125 0.89892578125
vt 0.088671875 0.9150390625
vt 0.0234375 0.5390625
vt 0.0234375 0.52734375
vt 0.0390625 0.52734375
vt 0.0390625 0.5390625
vt 0.20234375 0.7421875
vt 0.20234375 0.73046875
vt 0.21015625 0.73046875
vt 0.21015625 0.7421875
vt 0.09375 0.5078125
vt 0.09375 0.49609375
vt 0.1015625 0.49609375
vt 0.1015625 0.5078125
vt 0.32421875 0.9296875
vt 0.32421875 0.91796875
vt 0.40625 0.91796875
vt 0.40625 0.9296875
vt 0.3125 0.9296875
vt 0.3125 0.91796875
vt 0.32421875 0.91796875
vt 0.32421875 0.9296875
vt 0.21875 0.9296875
vt 0.21875 0.91953125
vt 0.3125 0.91796875
vt 0.3125 0.9296875
vt 0.421875 0.5078125
vt 0.421875 0.49765625
vt 0.4296875 0.49765625
vt 0.4296875 0.5078125
vt 0.014843750000000003 0.671875
vt 0.014843750000000003 0.73203125
vt 0.005078125000000003 0.732421875
vt 0.007031250000000003 0.6640625
vt 0.015625 0.45243750000000005
vt 0.015625 0.520825
vt 0 0.520825
vt 0 0.45243750000000005
vt 0.20390625 0.8359375
vt 0.205859375 0.904296875
vt 0.10234375 0.900390625
vt 0.10234375 0.8359375
vt 0.10234375 0.8359375
vt 0.10234375 0.900390625
vt 0.0876953125 0.89892578125
vt 0.090625 0.8359375
vt 0.090625 0.8359375
vt 0.0876953125 0.89892578125
vt 0.0007812499999999972 0.90234375
vt 0.0007812499999999972 0.8359375
vt 0.0390625 0.4609375
vt 0.0390625 0.52734375
vt 0.0234375 0.52734375
vt 0.0234375 0.4609375
vt 0.21015625 0.6640625
vt 0.21015625 0.73046875
vt 0.20234375 0.73046875
vt 0.20234375 0.671875
vt 0.1015625 0.4375
vt 0.1015625 0.49609375
vt 0.09375 0.49609375
vt 0.09375 0.4375
vt 0.40625 0.859375
vt 0.40625 0.91796875
vt 0.32421875 0.91796875
vt 0.32421875 0.859375
vt 0.32421875 0.859375
vt 0.32421875 0.91796875
vt 0.3125 0.91796875
vt 0.3125 0.859375
vt 0.3125 0.859375
vt 0.3125 0.91796875
vt 0.21875 0.91953125
vt 0.21875 0.859375
vt 0.4296875 0.4375
vt 0.4296875 0.49765625
vt 0.421875 0.49765625
vt 0.421875 0.4375
vn 1 0 0
vn -1 0 0
vn -0.44721359549995804 0.8944271909999161 0
vn 0 -1 0
vn 0 0 1
vn 0 0 -1
vn 0 0 -1
vn 0 0 -1
vn 0 0 -1
vn 0 0 -1
vn 1 0 0
vn 0 -1 0
vn -1 0 0
vn 0 1 0
vn 0 0 -1
vn 0 0 1
vn 0 -1 0
vn 0 0 -1
vn 0 1 0
vn 0 0 -1
vn 0 -1 0
vn 0 1 0
vn 0 0 -1
vn 0 -1 0
vn 0 0 -1
vn 0 1 0
vn 0 0 -1
vn 0 -1 0
vn 0 0 1
vn -0.02173399540921557 0.9997637888239163 0
vn 0 0 -1
vn 0.9539937169012558 -0.2998265967403941 0
vn 0 0 1
vn 0 0 1
vn 0 0 1
vn -1 0 0
vn 0 0 -1
vn 1 0 0
vn 0 0 -1
vn 0 0 -1
vn 0 0 -1
vn -1 0 0
vn 0 0 -1
vn 0.9995920864606949 -0.028559773898876997 0
vn 0 0 1
vn 0 0 1
vn 0 0 1
vn -1 0 0
vn 0 0 -1
vn 1 0 0
vn 0 0 -1
vn 0 0 -1
vn 0 0 -1
vn -1 0 0
usemtl m_d1a0c30f-e8d8-a55d-4d00-aa4f87185b31
f 33/97/25 67/98/25 66/99/25 34/100/25
f 38/101/26 71/102/26 70/103/26 37/104/26
f 50/105/27 57/106/27 64/107/27 51/108/27
f 52/109/28 63/110/28 62/111/28 53/112/28
f 64/113/29 69/114/29 68/115/29 51/116/29
f 56/117/30 75/118/30 74/119/30 59/120/30
f 41/121/31 72/122/31 71/123/31 38/124/31
f 49/125/32 58/126/32 57/127/32 50/128/32
f 34/129/33 66/130/33 65/131/33 42/132/33
f 53/133/34 62/134/34 61/135/34 54/136/34
f 45/137/35 73/138/35 72/139/35 41/140/35
f 56/141/36 59/142/36 58/143/36 49/144/36
f 42/145/37 65/146/37 76/147/37 46/148/37
f 54/149/38 61/150/38 60/151/38 55/152/38
f 42/153/39 49/154/39 50/155/39 34/156/39
f 51/157/40 68/158/40 67/159/40 33/160/40
f 35/161/41 52/162/41 53/163/41 36/164/41
f 36/165/42 53/166/42 54/167/42 44/168/42
f 44/169/43 54/170/43 55/171/43 48/172/43
f 46/173/44 76/174/44 75/175/44 56/176/44
f 46/177/45 56/178/45 49/179/45 42/180/45
f 51/181/46 33/182/46 34/183/46 50/184/46
f 38/185/47 57/186/47 58/187/47 41/188/47
f 41/189/48 58/190/48 59/191/48 45/192/48
f 59/193/49 74/194/49 73/195/49 45/196/49
f 47/197/50 60/198/50 61/199/50 43/200/50
f 43/201/51 61/202/51 62/203/51 40/204/51
f 40/205/52 62/206/52 63/207/52 39/208/52
f 37/209/53 70/210/53 69/211/53 64/212/53
f 37/213/54 64/214/54 57/215/54 38/216/54
f 66/217/55 78/218/55 77/219/55 65/220/55
f 67/221/56 79/222/56 78/223/56 66/224/56
f 68/225/57 80/226/57 79/227/57 67/228/57
f 69/229/58 81/230/58 80/231/58 68/232/58
f 70/233/59 82/234/59 81/235/59 69/236/59
f 71/237/60 83/238/60 82/239/60 70/240/60
f 72/241/61 84/242/61 83/243/61 71/244/61
f 73/245/62 85/246/62 84/247/62 72/248/62
f 74/249/63 86/250/63 85/251/63 73/252/63
f 75/253/64 87/254/64 86/255/64 74/256/64
f 76/257/65 88/258/65 87/259/65 75/260/65
f 65/261/66 77/262/66 88/263/66 76/264/66
f 44/265/67 77/266/67 78/267/67 36/268/67
f 36/269/68 78/270/68 79/271/68 35/272/68
f 35/273/69 79/274/69 80/275/69 52/276/69
f 52/277/70 80/278/70 81/279/70 63/280/70
f 63/281/71 81/282/71 82/283/71 39/284/71
f 39/285/72 82/286/72 83/287/72 40/288/72
f 40/289/73 83/290/73 84/291/73 43/292/73
f 43/293/74 84/294/74 85/295/74 47/296/74
f 47/297/75 85/298/75 86/299/75 60/300/75
f 60/301/76 86/302/76 87/303/76 55/304/76
f 55/305/77 87/306/77 88/307/77 48/308/77
f 48/309/78 88/310/78 77/311/78 44/312/78