# Made in Blockbench 4.9.4
mtllib Lever.mtl

o cube
v 0.21875 0.75 0.0625
v 0.21875 0.75 0
v 0.21875 0 0.0625
v 0.21875 0 0
v -0.21875 0.75 0
v -0.21875 0.75 0.0625
v -0.21875 0 0
v -0.21875 0 0.0625
vt 0 1
vt 0.21875 1
vt 0.21875 0.625
vt 0 0.625
vt 0.46875 0.59375
vt 0.5 0.59375
vt 0.5 0.21875
vt 0.46875 0.21875
vt 0.25 1
vt 0.46875 1
vt 0.46875 0.625
vt 0.25 0.625
vt 0.5 1
vt 0.53125 1
vt 0.53125 0.625
vt 0.5 0.625
vt 0.75 0.5
vt 0.53125 0.5
vt 0.53125 0.53125
vt 0.75 0.53125
vt 0.75 0.46875
vt 0.53125 0.46875
vt 0.53125 0.4375
vt 0.75 0.4375
vn 0 0 -1
vn 1 0 0
vn 0 0 1
vn -1 0 0
vn 0 1 0
vn 0 -1 0
usemtl m_9768bc77-8b32-ec5d-7950-d106ddcfa7a1
f 4/4/1 7/3/1 5/2/1 2/1/1
f 3/8/2 4/7/2 2/6/2 1/5/2
f 8/12/3 3/11/3 1/10/3 6/9/3
f 7/16/4 8/15/4 6/14/4 5/13/4
f 6/20/5 1/19/5 2/18/5 5/17/5
f 7/24/6 4/23/6 3/22/6 8/21/6
o cube
v 0.14091511936339524 0.1875 -0.15625
v 0.14091511936339524 0.1875 -0.21875
v 0.14091511936339524 0.125 -0.15625
v 0.14091511936339524 0.125 -0.21875
v -0.14091511936339524 0.1875 -0.15625
v -0.14091511936339524 0.1875 -0.21875
v -0.14091511936339524 0.125 -0.15625
v -0.14091511936339524 0.125 -0.21875
v -0.20833333333333331 0.20833333333333326 -0.13541666666666666
v -0.20833333333333331 0.20833333333333326 -0.23958333333333334
v -0.20833333333333331 0.10416666666666674 -0.13541666666666666
v -0.20833333333333331 0.10416666666666674 -0.23958333333333334
v -0.14091511936339524 0.21875 -0.25
v -0.14091511936339524 0.09375 -0.25
v -0.14091511936339524 0.21875 -0.125
v -0.14091511936339524 0.09375 -0.125
v 0.20833333333333331 0.20833333333333326 -0.23958333333333334
v 0.20833333333333331 0.20833333333333326 -0.13541666666666666
v 0.20833333333333331 0.10416666666666674 -0.23958333333333334
v 0.20833333333333331 0.10416666666666674 -0.13541666666666666
v 0.14091511936339524 0.09375 -0.25
v 0.14091511936339524 0.21875 -0.25
v 0.14091511936339524 0.21875 -0.125
v 0.14091511936339524 0.09375 -0.125
v 0 0.1875 -0.21875
v 0 0.1875 -0.15625
v 0 0.125 -0.15625
v 0 0.125 -0.21875
v -0.0905882910193255 0.1875 -0.21875
v -0.0905882910193255 0.1875 -0.15625
v -0.0905882910193255 0.125 -0.15625
v -0.0905882910193255 0.125 -0.21875
v 0.0905882910193255 0.1875 -0.21875
v 0.0905882910193255 0.1875 -0.15625
v 0.0905882910193255 0.125 -0.15625
v 0.0905882910193255 0.125 -0.21875
v -0.0347551155740811 0.1875 -0.21875
v -0.0347551155740811 0.1875 -0.15625
v -0.0347551155740811 0.125 -0.15625
v -0.0347551155740811 0.125 -0.21875
v 0.034755115574081084 0.1875 -0.21875
v 0.034755115574081084 0.1875 -0.15625
v 0.034755115574081084 0.125 -0.15625
v 0.034755115574081084 0.125 -0.21875
v -0.0905882910193255 0.125 0
v -0.0347551155740811 0.1875 0
v -0.0347551155740811 0.125 0
v -0.0905882910193255 0.1875 0
v 0.0905882910193255 0.1875 0
v 0.034755115574081084 0.1875 0
v 0.034755115574081084 0.125 0
v 0.08873389541492988 0.125 0
vt 0.0625 0.375
vt 0.0625 0.4375
vt 0 0.4375
vt 0 0.375
vt 0.625 0.9375
vt 0.625 1
vt 0.5625 1
vt 0.5625 0.9375
vt 0 0.5625
vt 0.0390625 0.5625
vt 0.0390625 0.59375
vt 0 0.59375
vt 0.21875 0.46875
vt 0.2578125 0.46875
vt 0.2578125 0.5
vt 0.21875 0.5
vt 0.40625 0.34375
vt 0.4375 0.34375
vt 0.4375 0.375
vt 0.40625 0.375
vt 0.75 0.59375
vt 0.7109375 0.59375
vt 0.7109375 0.5625
vt 0.75 0.5625
vt 0.53125 0.40104062500000004
vt 0.53125 0.34895937499999996
vt 0.5625 0.34375
vt 0.5625 0.40625
vt 0.317709375 0.34375
vt 0.369790625 0.34375
vt 0.375 0.375
vt 0.3125 0.375
vt 0.625 0.34895937499999996
vt 0.625 0.40104062500000004
vt 0.59375 0.40625
vt 0.59375 0.34375
vt 0.057290625 0.34375
vt 0.005209375000000002 0.34375
vt 0 0.3125
vt 0.0625 0.3125
vt 0.15625 0.375
vt 0.15625 0.4375
vt 0.140625 0.421875
vt 0.140625 0.390625
vt 0.15625 0.4375
vt 0.09375 0.4375
vt 0.109375 0.421875
vt 0.140625 0.421875
vt 0.09375 0.375
vt 0.15625 0.375
vt 0.140625 0.390625
vt 0.109375 0.390625
vt 0.09375 0.4375
vt 0.09375 0.375
vt 0.109375 0.390625
vt 0.109375 0.421875
vt 0.1875 0.36979062500000004
vt 0.1875 0.31770937499999996
vt 0.21875 0.3125
vt 0.21875 0.375
vt 0.661459375 0.96875
vt 0.713540625 0.96875
vt 0.71875 1
vt 0.65625 1
vt 0.28125 0.31770937499999996
vt 0.28125 0.36979062500000004
vt 0.25 0.375
vt 0.25 0.3125
vt 0.713540625 0.9375
vt 0.661459375 0.9375
vt 0.65625 0.90625
vt 0.71875 0.90625
vt 0.5625 0.90625
vt 0.5625 0.84375
vt 0.578125 0.859375
vt 0.578125 0.890625
vt 0.625 0.90625
vt 0.5625 0.90625
vt 0.578125 0.890625
vt 0.609375 0.890625
vt 0.625 0.84375
vt 0.625 0.90625
vt 0.609375 0.890625
vt 0.609375 0.859375
vt 0.5625 0.84375
vt 0.625 0.84375
vt 0.609375 0.859375
vt 0.578125 0.859375
vt 0.109375 0.5625
vt 0.15234375 0.5625
vt 0.15234375 0.59375
vt 0.109375 0.59375
vt 0.609375 0.65625
vt 0.65234375 0.65625
vt 0.65234375 0.6875
vt 0.609375 0.6875
vt 0.328125 0.46875
vt 0.37109375 0.46875
vt 0.37109375 0.5
vt 0.328125 0.5
vt 0.640625 0.59375
vt 0.59765625 0.59375
vt 0.59765625 0.5625
vt 0.640625 0.5625
vt 0.0390625 0.5625
vt 0.06640625 0.5625
vt 0.06640625 0.59375
vt 0.0390625 0.59375
vt 0.09375 0.3125
vt 0.125 0.3125
vt 0.125 0.34375
vt 0.09375 0.34375
vt 0.2578125 0.46875
vt 0.28515625 0.46875
vt 0.28515625 0.5
vt 0.2578125 0.5
vt 0.7109375 0.59375
vt 0.68359375 0.59375
vt 0.68359375 0.5625
vt 0.7109375 0.5625
vt 0.21875 0.59375
vt 0.1796875 0.59375
vt 0.1796875 0.5625
vt 0.21875 0.5625
vt 0.6875 0.875
vt 0.65625 0.875
vt 0.65625 0.84375
vt 0.6875 0.84375
vt 0.4375 0.5
vt 0.3984375 0.5
vt 0.3984375 0.46875
vt 0.4375 0.46875
vt 0.53125 0.5625
vt 0.5703125 0.5625
vt 0.5703125 0.59375
vt 0.53125 0.59375
vt 0.109375 0.59375
vt 0.06640625 0.59375
vt 0.06640625 0.5625
vt 0.109375 0.5625
vt 0.609375 0.6875
vt 0.56640625 0.6875
vt 0.56640625 0.65625
vt 0.609375 0.65625
vt 0.328125 0.5
vt 0.28515625 0.5
vt 0.28515625 0.46875
vt 0.328125 0.46875
vt 0.640625 0.5625
vt 0.68359375 0.5625
vt 0.68359375 0.59375
vt 0.640625 0.59375
vt 0.1796875 0.59375
vt 0.15234375 0.59375
vt 0.15234375 0.5625
vt 0.1796875 0.5625
vt 0.6875 0.40625
vt 0.65625 0.40625
vt 0.65625 0.375
vt 0.6875 0.375
vt 0.3984375 0.5
vt 0.37109375 0.5
vt 0.37109375 0.46875
vt 0.3984375 0.46875
vt 0.5703125 0.5625
vt 0.59765625 0.5625
vt 0.59765625 0.59375
vt 0.5703125 0.59375
vt 0.28515625 0.578125
vt 0.2578125 0.578125
vt 0.2578125 0.5
vt 0.28515625 0.5
vt 0.1875 0.4375
vt 0.1875 0.40625
vt 0.28125 0.40625
vt 0.28125 0.4375
vt 0.0390625 0.484375
vt 0.06640625 0.484375
vt 0.06640625 0.5625
vt 0.0390625 0.5625
vt 0.65625 0.78125
vt 0.65625 0.8125
vt 0.5625 0.8125
vt 0.5625 0.78125
vt 0.15234375 0.484375
vt 0.1796875 0.484375
vt 0.1796875 0.5625
vt 0.15234375 0.5625
vt 0.65625 0.71875
vt 0.65625 0.75
vt 0.5625 0.75
vt 0.5625 0.71875
vt 0.3984375 0.578125
vt 0.37109375 0.578125
vt 0.37109375 0.5
vt 0.3984375 0.5
vt 0.3125 0.4375
vt 0.3125 0.40625
vt 0.40625 0.40625
vt 0.40625 0.4375
vn 1 0 0
vn -1 0 0
vn 0 1 0
vn 0 -1 0
vn 0 0 1
vn 0 0 -1
vn -0.15269630382146052 0 0.9882731600115752
vn -0.1526963038214617 0.9882731600115751 0
vn -0.15269630382146052 0 -0.9882731600115752
vn -0.1526963038214617 -0.9882731600115751 0
vn 1 0 0
vn 1 0 0
vn 1 0 0
vn 1 0 0
vn 0.15269630382146052 0 -0.9882731600115752
vn 0.1526963038214617 0.9882731600115751 0
vn 0.15269630382146052 0 0.9882731600115752
vn 0.1526963038214617 -0.9882731600115751 0
vn -1 0 0
vn -1 0 0
vn -1 0 0
vn -1 0 0
vn 0 1 0
vn 0 0 1
vn 0 -1 0
vn 0 0 -1
vn 0 1 0
vn 0 0 1
vn 0 -1 0
vn 0 0 -1
vn 0 1 0
vn 0 0 1
vn 0 -1 0
vn 0 0 -1
vn 0 1 0
vn 0 0 1
vn 0 -1 0
vn 0 0 -1
vn 0 1 0
vn 0 0 1
vn 0 -1 0
vn 0 0 -1
vn 0 -1 0
vn 1 0 0
vn 0 1 0
vn -1 0 0
vn 0 1 0
vn -1 0 0
vn 0 -1 0
vn 0.9994898002131245 -0.029655191874455682 0.011862076749782274
usemtl m_9768bc77-8b32-ec5d-7950-d106ddcfa7a1
f 27/25/7 25/26/7 26/27/7 28/28/7
f 19/29/8 17/30/8 18/31/8 20/32/8
f 13/33/9 38/34/9 37/35/9 14/36/9
f 16/37/10 40/38/10 39/39/10 15/40/10
f 15/41/11 39/42/11 38/43/11 13/44/11
f 14/45/12 37/46/12 40/47/12 16/48/12
f 17/49/13 19/50/13 24/51/13 23/52/13
f 18/53/14 17/54/14 23/55/14 21/56/14
f 20/57/15 18/58/15 21/59/15 22/60/15
f 19/61/16 20/62/16 22/63/16 24/64/16
f 22/65/17 21/66/17 14/67/17 16/68/17
f 21/69/18 23/70/18 13/71/18 14/72/18
f 24/73/19 22/74/19 16/75/19 15/76/19
f 23/77/20 24/78/20 15/79/20 13/80/20
f 25/81/21 27/82/21 29/83/21 30/84/21
f 26/85/22 25/86/22 30/87/22 31/88/22
f 28/89/23 26/90/23 31/91/23 32/92/23
f 27/93/24 28/94/24 32/95/24 29/96/24
f 30/97/25 29/98/25 12/99/25 10/100/25
f 31/101/26 30/102/26 10/103/26 9/104/26
f 32/105/27 31/106/27 9/107/27 11/108/27
f 29/109/28 32/110/28 11/111/28 12/112/28
f 34/113/29 50/114/29 49/115/29 33/116/29
f 35/117/30 51/118/30 50/119/30 34/120/30
f 36/121/31 52/122/31 51/123/31 35/124/31
f 33/125/32 49/126/32 52/127/32 36/128/32
f 38/129/33 46/130/33 45/131/33 37/132/33
f 53/133/34 55/134/34 54/135/34 56/136/34
f 40/137/35 48/138/35 47/139/35 39/140/35
f 37/141/36 45/142/36 48/143/36 40/144/36
f 10/145/37 41/146/37 42/147/37 9/148/37
f 9/149/38 42/150/38 43/151/38 11/152/38
f 11/153/39 43/154/39 44/155/39 12/156/39
f 12/157/40 44/158/40 41/159/40 10/160/40
f 33/161/41 45/162/41 46/163/41 34/164/41
f 34/165/42 46/166/42 47/167/42 35/168/42
f 35/169/43 47/170/43 48/171/43 36/172/43
f 36/173/44 48/174/44 45/175/44 33/176/44
f 41/177/45 49/178/45 50/179/45 42/180/45
f 57/181/46 58/182/46 59/183/46 60/184/46
f 43/185/47 51/186/47 52/187/47 44/188/47
f 44/189/48 52/190/48 49/191/48 41/192/48
f 55/193/49 53/194/49 39/195/49 47/196/49
f 54/197/50 55/198/50 47/199/50 46/200/50
f 56/201/51 54/202/51 46/203/51 38/204/51
f 53/205/52 56/206/52 38/207/52 39/208/52
f 58/209/53 57/210/53 42/211/53 50/212/53
f 59/213/54 58/214/54 50/215/54 51/216/54
f 60/217/55 59/218/55 51/219/55 43/220/55
f 57/221/56 60/222/56 43/223/56 42/224/56