{"asset":{"version":"2.0","generator":"Blockbench 4.9.4 glTF exporter"},"scenes":[{"nodes":[3],"name":"blockbench_export"}],"scene":0,"nodes":[{"translation":[0,0.375,0.03125],"name":"cube","mesh":0},{"translation":[-4.269046054161674e-18,0,0],"name":"cube","mesh":1},{"translation":[-0.00003566145393068938,0.5625,-0.15865384615384615],"name":"lever","children":[1]},{"children":[0,2]}],"bufferViews":[{"buffer":0,"byteOffset":0,"byteLength":288,"target":34962,"byteStride":12},{"buffer":0,"byteOffset":288,"byteLength":288,"target":34962,"byteStride":12},{"buffer":0,"byteOffset":576,"byteLength":192,"target":34962,"byteStride":8},{"buffer":0,"byteOffset":768,"byteLength":72,"target":34963},{"buffer":0,"byteOffset":840,"byteLength":2400,"target":34962,"byteStride":12},{"buffer":0,"byteOffset":3240,"byteLength":2400,"target":34962,"byteStride":12},{"buffer":0,"byteOffset":5640,"byteLength":1600,"target":34962,"byteStride":8},{"buffer":0,"byteOffset":7240,"byteLength":600,"target":34963},{"buffer":0,"byteOffset":7840,"byteLength":12},{"buffer":0,"byteOffset":7852,"byteLength":36}],"buffers":[{"byteLength":7888,"uri":"data:application/octet-stream;base64,"}],"accessors":[{"bufferView":0,"componentType":5126,"count":24,"max":[0.21875,0.375,0.03125],"min":[-0.21875,-0.375,-0.03125],"type":"VEC3"},{"bufferView":1,"componentType":5126,"count":24,"max":[1,1,1],"min":[-1,-1,-1],"type":"VEC3"},{"bufferView":2,"componentType":5126,"count":24,"max":[0.75,0.78125],"min":[0,0],"type":"VEC2"},{"bufferView":3,"componentType":5123,"count":36,"max":[23],"min":[0],"type":"SCALAR"},{"bufferView":4,"componentType":5126,"count":200,"max":[0.20836900174617767,0.0625,0.1586538404226303],"min":[-0.20829766988754272,-0.0625,-0.09134615212678909],"type":"VEC3"},{"bufferView":5,"componentType":5126,"count":200,"max":[1,1,1],"min":[-1,-1,-1],"type":"VEC3"},{"bufferView":6,"componentType":5126,"count":200,"max":[0.75,0.6875],"min":[0,0],"type":"VEC2"},{"bufferView":7,"componentType":5123,"count":300,"max":[199],"min":[0],"type":"SCALAR"},{"bufferView":8,"componentType":5126,"count":3,"max":[0.25],"min":[0],"type":"SCALAR"},{"bufferView":9,"componentType":5126,"count":3,"max":[-0.00003566145460354164,0.59375,-0.1586538404226303],"min":[-0.00003566145460354164,0.15625,-0.1586538404226303],"type":"VEC3"}],"materials":[{"pbrMetallicRoughness":{"metallicFactor":0,"roughnessFactor":1,"baseColorTexture":{"index":0}},"alphaMode":"MASK","alphaCutoff":0.05,"doubleSided":true}],"textures":[{"sampler":0,"source":0}],"samplers":[{"magFilter":9728,"minFilter":9728,"wrapS":33071,"wrapT":33071}],"images":[{"mimeType":"image/png","uri":"data:image/png;base64,"}],"meshes":[{"primitives":[{"mode":4,"attributes":{"POSITION":0,"NORMAL":1,"TEXCOORD_0":2},"indices":3,"material":0}]},{"primitives":[{"mode":4,"attributes":{"POSITION":4,"NORMAL":5,"TEXCOORD_0":6},"indices":7,"material":0}]}],"animations":[{"name":"push_lever_animation","samplers":[{"input":8,"output":9,"interpolation":"LINEAR"}],"channels":[{"sampler":0,"target":{"node":2,"path":"translation"}}]}]}